<?xml version="1.0" standalone="no"?>
<!DOCTYPE svg PUBLIC "-//W3C//DTD SVG 20010904//EN"
 "http://www.w3.org/TR/2001/REC-SVG-20010904/DTD/svg10.dtd">
<svg version="1.0" xmlns="http://www.w3.org/2000/svg"
 width="500.000000pt" height="500.000000pt" viewBox="0 0 500.000000 500.000000"
 preserveAspectRatio="xMidYMid meet">
<metadata>
Created by potrace 1.14, written by Peter Selinger 2001-2017
</metadata>
<g transform="translate(0.000000,500.000000) scale(0.100000,-0.100000)"
fill="#000000" stroke="none">
<path d="M0 2500 l0 -2500 2500 0 2500 0 0 2500 0 2500 -2500 0 -2500 0 0
-2500z m2935 554 l54 -23 -104 -258 c-57 -142 -102 -259 -101 -261 2 -1 25 7
51 19 145 64 337 -17 415 -175 61 -123 49 -272 -34 -443 -72 -148 -160 -225
-287 -253 -79 -17 -155 -6 -239 36 -76 39 -124 88 -142 147 -6 20 -14 37 -18
37 -3 0 -15 -20 -26 -44 l-19 -45 -70 29 c-45 18 -69 33 -67 42 1 8 34 93 73
189 122 302 401 992 410 1017 10 26 16 26 104 -14z m-1193 -21 c38 -14 68 -32
68 -38 0 -7 -27 -137 -60 -290 -33 -153 -58 -280 -56 -283 5 -4 44 54 244 367
l84 130 51 -20 c29 -11 64 -25 80 -31 15 -5 27 -15 27 -22 0 -7 -25 -133 -55
-281 -30 -148 -55 -276 -55 -284 0 -13 2 -13 14 -1 7 8 75 116 151 240 76 124
144 231 150 238 9 10 24 7 75 -14 36 -14 69 -30 74 -34 5 -5 -76 -131 -180
-284 -104 -151 -219 -320 -256 -375 l-68 -100 -62 26 c-35 13 -66 28 -71 32
-4 4 13 106 38 227 25 120 57 271 70 334 21 101 24 134 11 119 -2 -2 -83 -130
-181 -284 -97 -154 -181 -284 -185 -288 -11 -12 -140 43 -140 60 0 8 23 148
51 311 27 163 59 351 70 417 22 133 27 155 37 155 4 0 37 -12 74 -27z"/>
<path d="M2824 2400 c-165 -82 -257 -352 -169 -495 39 -63 100 -96 178 -96 67
0 100 16 154 74 92 99 145 264 122 375 -26 128 -169 199 -285 142z"/>
</g>
</svg>
